<?xml version="1.0" encoding="UTF-8"?><svg id="a" xmlns="http://www.w3.org/2000/svg" viewBox="0 0 568.36 94.1"><g id="b"><g id="c"><path d="M514.95,22.68c.33-6.36,3.12-12.02,7.43-16.11,4.28-4.09,10.11-6.58,16.47-6.58s12.16,2.49,16.47,6.58c4.31,4.09,7.1,9.75,7.43,16.11l-2.79,.14c-.3-5.61-2.76-10.61-6.58-14.23-3.79-3.59-8.92-5.77-14.53-5.77s-10.75,2.18-14.56,5.77c-3.79,3.62-6.24,8.62-6.55,14.23l-2.79-.14h0Z" style="fill:#c20000;"/><path d="M512.57,36.66c-1.99-1.93-3.23-4.67-3.23-7.68s1.24-5.75,3.23-7.68v15.36h0Z" style="fill:#c20000; fill-rule:evenodd;"/><path d="M519.79,21.8c.5,0,.91,.41,.91,.91v12.54c0,.5-.41,.91-.91,.91v2.38c0,.33-.14,.61-.36,.83-.25,.22-.55,.33-.88,.28-1.08-.11-2.13-.41-3.09-.83-.8-.36-1.3-1.1-1.3-1.99v-15.69c0-.86,.5-1.63,1.3-1.96,.97-.44,2.02-.75,3.09-.86,.33-.03,.64,.06,.88,.28,.22,.22,.36,.5,.36,.83v2.38h0Z" style="fill:#c20000; fill-rule:evenodd;"/><path d="M565.1,36.66c2.02-1.93,3.26-4.67,3.26-7.68s-1.24-5.75-3.26-7.68v15.36h0Z" style="fill:#c20000; fill-rule:evenodd;"/><path d="M557.91,21.8c-.53,0-.94,.41-.94,.91v12.54c0,.5,.41,.91,.94,.91v2.38c0,.33,.11,.61,.36,.83,.25,.22,.55,.33,.86,.28,1.1-.11,2.16-.41,3.12-.83,.8-.36,1.3-1.1,1.3-1.99v-15.69c0-.86-.5-1.63-1.3-1.96-.97-.44-2.02-.75-3.12-.86-.3-.03-.61,.06-.86,.28s-.36,.5-.36,.83v2.38h0Z" style="fill:#c20000; fill-rule:evenodd;"/><path d="M536.78,46.8h4.12c1.19,0,2.16,.97,2.16,2.16h0c0,1.19-.97,2.13-2.16,2.13h-4.12c-1.16,0-2.13-.94-2.13-2.13h0c0-1.19,.97-2.16,2.13-2.16h0Z" style="fill:#c20000; fill-rule:evenodd;"/><path d="M541.64,48.02h9.7c2.32,0,4.45-.97,5.97-2.49,1.55-1.52,2.49-3.65,2.49-5.97v-2.4h1.88v2.4c0,2.85-1.16,5.42-3.04,7.29s-4.45,3.04-7.29,3.04h-9.7v-1.88h0Z" style="fill:#c20000;"/><path d="M525.92,31.11v-6.02c0-.66,.53-1.19,1.16-1.19h.72c.64,0,1.16,.53,1.16,1.19v6.02c0,.64-.53,1.16-1.16,1.16h-.72c-.64,0-1.16-.53-1.16-1.16h0Z" style="fill:#c20000;"/><path d="M531.61,34.81v-13.46c0-.64,.55-1.16,1.19-1.16h.69c.66,0,1.19,.53,1.19,1.16v13.46c0,.66-.53,1.19-1.19,1.19h-.69c-.64,0-1.19-.53-1.19-1.19h0Z" style="fill:#c20000; fill-rule:evenodd;"/><path d="M537.33,38.54V17.66c0-.66,.53-1.19,1.16-1.19h.72c.64,0,1.16,.53,1.16,1.19v20.89c0,.64-.53,1.16-1.16,1.16h-.72c-.64,0-1.16-.53-1.16-1.16h0Z" style="fill:#c20000;"/><path d="M551.78,31.11v-6.02c0-.66-.53-1.19-1.19-1.19h-.69c-.64,0-1.16,.53-1.16,1.19v6.02c0,.64,.53,1.16,1.16,1.16h.69c.66,0,1.19-.53,1.19-1.16h0Z" style="fill:#c20000;"/><path d="M546.06,34.81v-13.46c0-.64-.53-1.16-1.16-1.16h-.69c-.66,0-1.19,.53-1.19,1.16v13.46c0,.66,.53,1.19,1.19,1.19h.69c.64,0,1.16-.53,1.16-1.19h0Z" style="fill:#c20000; fill-rule:evenodd;"/></g></g><text transform="translate(0 47.17)" style="fill:#e3e3e3; font-family:Impact, Impact; font-size:50px;"><tspan x="0" y="0">CUSTOMER SUPPORT CAFE</tspan></text></svg>