<?xml version="1.0" encoding="utf-8"?>
<!-- Generator: Adobe Illustrator 26.2.1, SVG Export Plug-In . SVG Version: 6.00 Build 0)  -->
<svg version="1.1" id="Layer_1" xmlns="http://www.w3.org/2000/svg" xmlns:xlink="http://www.w3.org/1999/xlink" x="0px" y="0px"
	 viewBox="0 0 574.3 59" style="enable-background:new 0 0 574.3 59;" xml:space="preserve">
<style type="text/css">
	.st0{fill:#C20000;}
	.st1{fill-rule:evenodd;clip-rule:evenodd;fill:#C20000;}
	.st2{fill:none;}
	.st3{fill:#E3E3E3;}
	.st4{font-family:'Impact';}
	.st5{font-size:50px;}
</style>
<g id="b">
	<g id="c">
		<path class="st0" d="M518.2,26.6c0.3-6.4,3.1-12,7.4-16.1c4.3-4.1,10.1-6.6,16.5-6.6s12.2,2.5,16.5,6.6c4.3,4.1,7.1,9.8,7.4,16.1
			l-2.8,0.1c-0.3-5.6-2.8-10.6-6.6-14.2c-3.8-3.6-8.9-5.8-14.5-5.8s-10.7,2.2-14.6,5.8c-3.8,3.6-6.2,8.6-6.5,14.2L518.2,26.6
			L518.2,26.6z"/>
		<path class="st1" d="M515.8,40.6c-2-1.9-3.2-4.7-3.2-7.7s1.2-5.7,3.2-7.7V40.6L515.8,40.6z"/>
		<path class="st1" d="M523,25.8c0.5,0,0.9,0.4,0.9,0.9v12.5c0,0.5-0.4,0.9-0.9,0.9v2.4c0,0.3-0.1,0.6-0.4,0.8
			c-0.2,0.2-0.6,0.3-0.9,0.3c-1.1-0.1-2.1-0.4-3.1-0.8c-0.8-0.4-1.3-1.1-1.3-2V25.1c0-0.9,0.5-1.6,1.3-2c1-0.4,2-0.7,3.1-0.9
			c0.3,0,0.6,0.1,0.9,0.3c0.2,0.2,0.4,0.5,0.4,0.8V25.8L523,25.8z"/>
		<path class="st1" d="M568.3,40.6c2-1.9,3.3-4.7,3.3-7.7s-1.2-5.7-3.3-7.7V40.6L568.3,40.6z"/>
		<path class="st1" d="M561.2,25.8c-0.5,0-0.9,0.4-0.9,0.9v12.5c0,0.5,0.4,0.9,0.9,0.9v2.4c0,0.3,0.1,0.6,0.4,0.8
			c0.2,0.2,0.6,0.3,0.9,0.3c1.1-0.1,2.2-0.4,3.1-0.8c0.8-0.4,1.3-1.1,1.3-2V25.1c0-0.9-0.5-1.6-1.3-2c-1-0.4-2-0.7-3.1-0.9
			c-0.3,0-0.6,0.1-0.9,0.3c-0.2,0.2-0.4,0.5-0.4,0.8V25.8L561.2,25.8z"/>
		<path class="st1" d="M540,50.8h4.1c1.2,0,2.2,1,2.2,2.2l0,0c0,1.2-1,2.1-2.2,2.1H540c-1.2,0-2.1-0.9-2.1-2.1l0,0
			C537.9,51.7,538.9,50.8,540,50.8L540,50.8z"/>
		<path class="st0" d="M544.9,52h9.7c2.3,0,4.4-1,6-2.5c1.5-1.5,2.5-3.6,2.5-6v-2.4h1.9v2.4c0,2.8-1.2,5.4-3,7.3
			c-1.9,1.9-4.4,3-7.3,3h-9.7L544.9,52L544.9,52z"/>
		<path class="st0" d="M529.2,35.1v-6c0-0.7,0.5-1.2,1.2-1.2h0.7c0.6,0,1.2,0.5,1.2,1.2v6c0,0.6-0.5,1.2-1.2,1.2h-0.7
			C529.7,36.2,529.2,35.7,529.2,35.1C529.2,35.1,529.2,35.1,529.2,35.1z"/>
		<path class="st1" d="M534.9,38.8V25.3c0-0.6,0.6-1.2,1.2-1.2h0.7c0.7,0,1.2,0.5,1.2,1.2v13.5c0,0.7-0.5,1.2-1.2,1.2H536
			C535.4,40,534.9,39.4,534.9,38.8L534.9,38.8z"/>
		<path class="st0" d="M540.6,42.5V21.6c0-0.7,0.5-1.2,1.2-1.2h0.7c0.6,0,1.2,0.5,1.2,1.2v20.9c0,0.6-0.5,1.2-1.2,1.2h-0.7
			C541.1,43.7,540.6,43.1,540.6,42.5L540.6,42.5z"/>
		<path class="st0" d="M555,35.1v-6c0-0.7-0.5-1.2-1.2-1.2h-0.7c-0.6,0-1.2,0.5-1.2,1.2v6c0,0.6,0.5,1.2,1.2,1.2h0.7
			C554.5,36.2,555,35.7,555,35.1L555,35.1z"/>
		<path class="st1" d="M549.3,38.8V25.3c0-0.6-0.5-1.2-1.2-1.2h-0.7c-0.7,0-1.2,0.5-1.2,1.2v13.5c0,0.7,0.5,1.2,1.2,1.2h0.7
			C548.8,40,549.3,39.4,549.3,38.8L549.3,38.8z"/>
	</g>
</g>
<rect x="2.9" y="9.7" class="st2" width="529.3" height="86.5"/>
<text transform="matrix(1 0 0 1 2.8631 49.2121)" class="st3 st4 st5">CUSTOMER SUPPORT CAFE</text>
</svg>
