<?xml version="1.0" encoding="UTF-8"?><svg xmlns="http://www.w3.org/2000/svg" viewBox="0 0 2793.28 404"><g id="a"><rect width="2793.28" height="404" style="fill:#fff;"/></g><g id="b"><g id="c"><g id="d"><path d="M2364.29,180.44c2.5-47.91,23.54-90.61,56.03-121.44,32.29-30.82,76.24-49.57,124.15-49.57s91.65,18.75,124.14,49.57c32.49,30.83,53.53,73.53,56.03,121.44l-21.04,1.04c-2.29-42.28-20.83-79.99-49.57-107.27-28.54-27.08-67.28-43.53-109.56-43.53s-81.03,16.46-109.77,43.53c-28.54,27.29-47.07,64.99-49.37,107.27l-21.04-1.04h0Z" style="fill:#c20000;"/><path d="M2346.38,285.84c-15-14.58-24.37-35.2-24.37-57.91s9.37-43.33,24.37-57.91v115.81h0Z" style="fill:#c20000; fill-rule:evenodd;"/><path d="M2400.75,173.77c3.75,0,6.87,3.12,6.87,6.87v94.57c0,3.75-3.12,6.87-6.87,6.87v17.91c0,2.5-1.04,4.58-2.71,6.25-1.87,1.67-4.17,2.5-6.67,2.08-8.12-.83-16.04-3.12-23.33-6.25-6.04-2.71-9.79-8.33-9.79-15v-118.31c0-6.46,3.75-12.29,9.79-14.79,7.29-3.33,15.21-5.62,23.33-6.46,2.5-.21,4.79,.42,6.67,2.08,1.67,1.67,2.71,3.75,2.71,6.25v17.93Z" style="fill:#c20000; fill-rule:evenodd;"/><path d="M2742.35,285.84c15.21-14.58,24.58-35.2,24.58-57.91s-9.37-43.33-24.58-57.91v115.81h0Z" style="fill:#c20000; fill-rule:evenodd;"/><path d="M2688.19,173.77c-3.96,0-7.08,3.12-7.08,6.87v94.57c0,3.75,3.12,6.87,7.08,6.87v17.91c0,2.5,.83,4.58,2.71,6.25,1.87,1.67,4.17,2.5,6.46,2.08,8.33-.83,16.25-3.12,23.54-6.25,6.04-2.71,9.79-8.33,9.79-15v-118.31c0-6.46-3.75-12.29-9.79-14.79-7.29-3.33-15.21-5.62-23.54-6.46-2.29-.21-4.58,.42-6.46,2.08s-2.71,3.75-2.71,6.25v17.93Z" style="fill:#c20000; fill-rule:evenodd;"/><path d="M2528.85,362.28h31.04c8.96,0,16.25,7.29,16.25,16.25h0c0,8.96-7.29,16.04-16.25,16.04h-31.04c-8.75,0-16.04-7.08-16.04-16.04h0c0-8.96,7.29-16.25,16.04-16.25h0Z" style="fill:#c20000; fill-rule:evenodd;"/><path d="M2565.51,371.45h73.11c17.5,0,33.54-7.29,44.99-18.75,11.66-11.46,18.75-27.49,18.75-44.99v-18.12h14.16v18.12c0,21.45-8.75,40.83-22.91,54.99s-33.54,22.91-54.99,22.91h-73.11v-14.16h0Z" style="fill:#c20000;"/><path d="M2446.99,243.97v-45.41c0-5,3.96-8.96,8.75-8.96h5.42c4.79,0,8.75,3.96,8.75,8.96v45.41c0,4.79-3.96,8.75-8.75,8.75h-5.42c-4.79,0-8.75-3.96-8.75-8.75h0Z" style="fill:#c20000;"/><path d="M2489.9,271.88v-101.44c0-4.79,4.17-8.75,8.96-8.75h5.21c5,0,8.96,3.96,8.96,8.75v101.44c0,5-3.96,8.96-8.96,8.96h-5.21c-4.79,0-8.96-3.96-8.96-8.96h0Z" style="fill:#c20000; fill-rule:evenodd;"/><path d="M2533.01,300V142.53c0-5,3.96-8.96,8.75-8.96h5.42c4.79,0,8.75,3.96,8.75,8.96v157.47c0,4.79-3.96,8.75-8.75,8.75h-5.42c-4.79,0-8.75-3.96-8.75-8.75h0Z" style="fill:#c20000;"/><path d="M2641.95,243.97v-45.41c0-5-3.96-8.96-8.96-8.96h-5.21c-4.79,0-8.75,3.96-8.75,8.96v45.41c0,4.79,3.96,8.75,8.75,8.75h5.21c5,0,8.96-3.96,8.96-8.75h0Z" style="fill:#c20000;"/><path d="M2598.83,271.88v-101.44c0-4.79-3.96-8.75-8.75-8.75h-5.21c-5,0-8.96,3.96-8.96,8.75v101.44c0,5,3.96,8.96,8.96,8.96h5.21c4.79,0,8.75-3.96,8.75-8.96h0Z" style="fill:#c20000; fill-rule:evenodd;"/></g></g></g><g id="e"><text transform="translate(19.68 286.54)" style="fill:#e3e3e3; font-family:Impact, Impact; font-size:224px;"><tspan x="0" y="0">CUSTOMER SUPPORT CAFE</tspan></text></g></svg>